<svg width="351" height="28" viewBox="0 0 351 28" fill="none" xmlns="http://www.w3.org/2000/svg">
<path fill-rule="evenodd" clip-rule="evenodd" d="M125.071 13.9396C128.219 18.9124 130.097 21.822 130.678 22.6684C131.234 23.4355 131.922 23.9381 132.715 24.1761C133.138 24.2555 133.35 24.3084 133.35 24.3613V25.1284C133.35 25.1813 133.324 25.2077 133.271 25.2077H128.748C127.769 23.991 126.446 21.7955 124.78 18.6479C124.092 17.3518 123.404 16.2673 122.664 15.3944C122.214 14.839 121.368 14.5744 120.125 14.5744H117.85V20.9227C117.85 22.5097 118.088 23.4091 118.538 23.6736C118.776 23.8852 119.305 24.0968 120.098 24.3084V25.1284C120.098 25.1813 120.072 25.2077 120.019 25.2077H112.083C112.031 25.2077 112.004 25.1813 112.004 25.1284V24.3877C112.031 24.3613 112.374 24.229 113.036 24.0439C113.829 23.7794 114.226 22.9858 114.226 21.6368V14.6538L111.449 16.3467H110.232C109.597 18.304 108.38 20.1556 106.635 21.9278C104.148 24.229 101.424 25.3664 98.4084 25.3664H97.7735C95.3401 25.3664 93.0917 24.5993 91.0286 23.1181C88.7273 21.3723 87.2461 19.0976 86.6113 16.3202H78.2792L74.2851 27.5618L70.582 16.2938H65.186L61.2977 27.8264L57.4624 16.2938C55.7961 16.2673 54.6323 16.2673 54.1297 16.2673H54.1296C53.4147 16.2536 52.6642 16.247 51.8816 16.2401L51.8808 16.2401C51.1579 16.2337 50.4076 16.2271 49.6329 16.2144C49.7387 16.8228 49.8181 17.4841 49.8181 18.1982C49.8181 20.9227 48.4691 22.9329 45.7446 24.2555C44.2898 24.8903 42.8086 25.2077 41.3538 25.2077C38.8409 25.2077 36.381 24.1761 33.9211 22.1394C33.4978 22.351 33.1275 23.1445 32.7837 24.52L32.2017 24.4142L33.4978 16.6112L34.1591 17.246C34.0533 19.0711 34.6617 20.6317 35.9842 21.9807C37.3068 23.3297 39.1583 23.991 41.486 24.0174C43.126 24.0174 44.3956 23.4884 45.242 22.4568C46.0885 21.4252 46.4588 20.3143 46.3265 19.1769C46.3265 18.1189 45.9298 17.1137 45.2156 16.1615C40.7454 16.1351 35.9842 16.1086 31.8314 16.1086L28.3664 17.0873L25.4568 16.1086L25.589 16.0292C24.9806 15.8705 24.4516 15.5267 24.1078 15.0241C23.7639 15.5002 23.2878 15.8441 22.7059 16.0028L21.6743 18.8066H22.0181C23.6581 18.8066 25.1129 18.066 26.0916 16.8757C25.88 18.4098 24.9806 19.2563 23.9755 19.7324C22.5472 20.4201 20.9601 20.3407 20.9601 20.3407L20.5369 21.1872C21.9917 21.9807 24.6103 22.4833 24.6103 22.4833C23.5523 22.7213 22.6265 22.8536 21.8065 22.8536C17.5744 22.9065 16.3048 20.2614 16.3048 20.2614C17.3099 20.4201 18.6853 20.3672 18.6853 20.3672C19.0821 19.7059 19.5053 18.7008 19.6905 18.2511L20.7485 15.7383C20.4311 15.5531 20.1666 15.3151 19.955 15.0241C19.4789 15.6854 18.7382 16.1086 17.8654 16.1086C17.1512 16.1086 16.5164 15.8176 16.0402 15.3415L15.8286 15.4209L14.4796 14.3893L13.3687 15.5267L12.5487 14.8919H4.90441L3.44961 15.7912L0.857422 13.5429L3.42316 11.2681L4.87796 12.1674H4.85151L4.90441 12.1939H12.5487L13.3687 11.559L14.4796 12.6964L15.8286 11.6649L16.0402 11.7442C16.4899 11.2681 17.1512 10.9771 17.8654 10.9771C18.7382 10.9771 19.4789 11.4003 19.955 12.0616C20.1666 11.7707 20.4311 11.5326 20.7485 11.3474L19.6905 8.8346C19.6629 8.77167 19.6301 8.69528 19.5929 8.60865L19.5929 8.60859C19.38 8.11269 19.0231 7.28144 18.6853 6.71853C18.6853 6.71853 17.3363 6.66563 16.3048 6.82433C16.3048 6.82433 17.5744 4.17924 21.8065 4.23215C22.6265 4.23215 23.5523 4.33795 24.6103 4.60246C24.6103 4.60246 21.9917 5.10503 20.5369 5.89855L20.9601 6.74498C20.9601 6.74498 22.5472 6.66563 23.9755 7.3269C24.9542 7.80302 25.88 8.6759 26.0916 10.1836C25.1129 9.01976 23.6581 8.25268 22.0181 8.25268H21.6743L22.7323 11.0565C23.3142 11.2152 23.7904 11.559 24.1342 12.0352C24.4781 11.5326 25.0071 11.1887 25.6155 11.03L25.4568 10.9507L28.3664 9.97199L31.8579 10.9507H35.4817C35.2701 10.6597 35.0849 10.3423 34.9526 10.0249C34.8204 10.0778 34.7146 10.2101 34.5823 10.4746C34.4236 9.86619 34.3443 9.23137 34.3443 8.51719C34.1327 8.57009 33.974 8.6759 33.8682 8.8346C33.8682 8.38494 34.0269 7.56496 34.2914 6.34822L33.8153 6.74498C33.8153 5.925 34.1591 4.89342 34.8468 3.65023C36.2487 1.58705 38.2061 0.555469 40.7454 0.555469C42.5705 0.555469 44.4485 1.37545 46.4323 3.04185L47.1465 1.32255C47.6755 1.16384 47.94 1.08449 47.9665 1.08449C47.4639 3.80893 47.0407 6.24241 46.6968 8.35849C46.2472 8.06753 46.0356 7.88237 46.0356 7.85592C46.0356 6.11016 45.5595 4.60246 44.6072 3.38572C43.4963 2.24833 42.0944 1.69286 40.4015 1.69286C39.3699 1.69286 38.4177 2.16897 37.5713 3.06831C37.0423 3.72958 36.7778 4.3644 36.7778 4.94632C36.7778 6.77143 37.73 8.01463 39.6609 8.70235L43.6021 10.1307C44.184 10.3688 44.713 10.6333 45.2156 10.8978C48.4955 10.8713 51.5903 10.8449 54.1825 10.8184H55.7166L53.4154 3.91473C52.9657 2.8038 52.278 2.03672 51.3522 1.63996V0.846429C51.3787 0.793527 51.4051 0.767076 51.4316 0.767076H58.9701C59.023 0.767076 59.0494 0.793527 59.0494 0.846429V1.61351C59.0494 1.63996 58.7849 1.71931 58.2294 1.85156C57.4624 2.16897 57.0656 2.75089 57.0656 3.65023C57.0656 4.49665 57.6211 6.90369 58.6791 10.8184H64.1809L67.8576 0L71.931 10.792H77.3005C78.8083 6.48047 79.5753 4.15279 79.5753 3.80893V3.78248C79.5753 2.8038 79.2315 2.19543 78.5437 1.93092C78.2792 1.79866 77.9618 1.69286 77.5915 1.63996V0.846429C77.5915 0.793527 77.618 0.767076 77.6444 0.767076H84.601C84.6539 0.767076 84.6804 0.793527 84.6804 0.846429V1.58705C84.6804 1.63996 84.4423 1.74576 83.9926 1.90447C83.3049 2.30123 82.6701 3.33281 82.1146 4.97277C81.9398 5.42238 81.3403 7.1929 80.3163 10.2175L80.1308 10.7655H86.479C86.8229 9.23137 87.5635 7.59141 88.6744 5.8721C91.3724 2.35413 94.7846 0.608371 98.9109 0.608371C103.408 0.608371 106.899 2.72444 109.385 6.95659C110.047 8.25268 110.47 9.52233 110.655 10.7655H111.449L114.226 12.4584V4.91987C114.226 3.38572 114.014 2.48639 113.565 2.22188C113.3 2.01027 112.798 1.79866 112.004 1.58705V0.767076C112.031 0.714175 112.057 0.687724 112.083 0.687724H121.923C125.997 0.687724 128.615 1.82511 129.832 4.07344C130.202 4.94632 130.388 5.84565 130.388 6.79788V7.08884C130.388 10.2894 128.615 12.5113 125.071 13.8338V13.9396ZM91.3724 14.3364H105.709C105.762 13.8074 105.788 13.2784 105.788 12.7493H91.2931C91.2931 13.2784 91.3195 13.8074 91.3724 14.3364ZM98.4877 2.45993C95.631 2.45993 93.515 4.23215 92.1131 7.80302C91.7427 8.88751 91.5311 9.86619 91.4253 10.7655H105.682C105.365 8.41139 104.492 6.32177 103.037 4.54956C101.794 3.14766 100.286 2.45993 98.4877 2.45993ZM76.4637 13.3048L76.4639 13.3042C76.532 13.1158 76.5989 12.9308 76.6657 12.7493H72.6981L73.3065 14.3364H76.0838C76.2185 13.9828 76.3425 13.64 76.4626 13.3079L76.4633 13.3059L76.4637 13.3048ZM68.7833 10.792L67.9105 8.14688L67.0111 10.792H68.7833ZM62.9642 14.3364L63.5196 12.7493H59.3139L59.9223 14.3364H62.9642ZM43.1524 14.257C43.1194 14.2306 43.0863 14.2041 43.0466 14.1777C42.3589 13.7016 41.3538 13.2255 40.137 12.7229H31.514L28.3928 11.6649L28.049 11.7707C28.4986 12.2468 28.7631 12.8551 28.7631 13.5429C28.7631 14.2041 28.4722 14.839 28.049 15.2886L28.3664 15.3944L31.4876 14.3364H43.2582C43.2186 14.3099 43.1855 14.2835 43.1524 14.257ZM16.7809 14.7332C17.0718 14.9977 17.4421 15.1564 17.8654 15.1564C18.7382 15.1564 19.4524 14.4157 19.5053 13.5693C19.5053 12.67 18.7911 11.9558 17.8918 11.9558C16.9925 11.9558 16.2783 12.6964 16.2783 13.5693C16.2783 13.9132 16.3577 14.2041 16.5428 14.4686C16.5957 14.548 16.6486 14.6009 16.728 14.6803C16.728 14.6966 16.7381 14.7028 16.752 14.7115C16.7607 14.7168 16.7708 14.7231 16.7809 14.7332ZM20.4046 13.5429C20.4046 14.4422 21.1453 15.1564 22.0181 15.1564C22.9175 15.1564 23.6317 14.4157 23.6317 13.5429C23.6317 12.6435 22.9175 11.9294 22.0181 11.9294C21.1188 11.9294 20.4046 12.67 20.4046 13.5429ZM26.1974 11.9294C25.2981 11.9294 24.5839 12.67 24.5839 13.5429C24.5839 14.4157 25.2981 15.1564 26.1974 15.1564C27.0967 15.1564 27.8109 14.4157 27.8109 13.5429C27.8109 12.6435 27.0703 11.9294 26.1974 11.9294ZM48.9849 14.2438C48.9981 14.2769 49.0113 14.3099 49.0245 14.3364H56.8804L56.3514 12.7493H47.8078C48.2575 13.199 48.6542 13.6487 48.9452 14.1512C48.9584 14.1777 48.9716 14.2108 48.9849 14.2438ZM60.6629 16.2673L61.5358 18.5685L62.3293 16.2673H60.6629ZM66.3763 12.7493L65.8473 14.3364H69.9736L69.4446 12.7493H66.3763ZM74.0471 16.2673L74.7348 18.066C74.9729 17.4576 75.1845 16.8492 75.3696 16.2673H74.0471ZM79.1541 13.7809L79.1538 13.7818C79.0922 13.9636 79.0296 14.1485 78.9669 14.3364H86.3203C86.2674 13.8603 86.241 13.3842 86.241 12.8816V12.7493H79.496C79.3911 13.0815 79.2747 13.4252 79.1543 13.7804L79.1541 13.7809ZM98.5406 23.4355C101.741 23.4355 104.016 21.1607 105.339 16.6376C105.365 16.5318 105.391 16.426 105.391 16.2938H91.6898C91.9543 17.4576 92.3247 18.6214 92.8008 19.7853C93.1182 20.3672 93.515 20.9227 93.9911 21.4781C95.3401 22.7742 96.8742 23.4355 98.5406 23.4355ZM110.708 14.3097L110.708 14.3099L112.004 13.5429L110.814 12.8551C110.814 13.3576 110.761 13.8337 110.708 14.3097ZM117.876 12.9874H120.31C123.008 12.9874 124.806 12.2468 125.679 10.8184C126.261 9.94554 126.552 8.94041 126.552 7.75012V7.11529C126.552 4.99922 125.6 3.51797 123.748 2.75089C122.849 2.45993 121.817 2.30123 120.601 2.30123C120.414 2.30123 120.054 2.30906 119.531 2.32047L119.531 2.32047C119.092 2.33002 118.539 2.34208 117.876 2.35413V12.9874ZM134.883 0.691151H143.665C149.537 0.691151 153.373 2.70142 155.145 6.66906C155.833 8.33546 156.176 10.2399 156.176 12.4354C156.176 16.7469 155.013 20.0003 152.711 22.1957C151.23 23.4389 149.802 24.2325 148.426 24.5499C146.919 24.9731 144.908 25.1847 142.395 25.1847H134.857C134.804 25.1847 134.778 25.1582 134.778 25.1053L133.693 23.7034C134.434 24.1002 135.174 24.1796 135.836 23.9944C136.285 23.8092 136.603 23.5183 136.788 23.148C136.973 22.6983 137.052 21.9841 137.052 20.979V4.9762C137.052 3.36269 136.841 2.43691 136.391 2.2253C136.153 2.0137 135.624 1.80209 134.804 1.59048V0.770504C134.831 0.717602 134.857 0.691151 134.883 0.691151ZM143.057 23.5712C146.76 23.5712 149.273 22.4073 150.595 20.0797C151.68 18.3339 152.367 16.0856 152.658 13.3347L152.606 12.1973C152.367 7.38323 150.542 4.28847 147.077 2.91303C145.887 2.48981 144.617 2.27821 143.295 2.27821H142.898C141.946 2.27821 141.205 2.30466 140.65 2.33111V23.4918C141.099 23.5447 141.708 23.5712 142.422 23.5712H143.057ZM168.876 10.1307L164.935 8.70235C163.004 8.01463 162.052 6.77143 162.052 4.94632C162.052 4.3644 162.316 3.72958 162.845 3.06831C163.692 2.16898 164.644 1.69286 165.675 1.69286C167.368 1.69286 168.77 2.24833 169.881 3.38572C170.833 4.60246 171.31 6.11016 171.31 7.85592C171.31 7.88237 171.521 8.06753 171.971 8.35849C172.315 6.24241 172.738 3.80893 173.24 1.08449C173.214 1.08449 172.949 1.16384 172.42 1.32255L171.706 3.04185C169.722 1.37545 167.844 0.55547 166.019 0.55547C163.48 0.55547 161.523 1.58706 160.121 3.65023C158.666 7.3798 159.671 10.1571 163.163 11.9294C165.543 12.6964 167.263 13.4371 168.347 14.1777C170.542 15.6854 171.627 17.3518 171.627 19.2034C171.759 20.3407 171.389 21.4517 170.542 22.4833C169.696 23.5149 168.426 24.0439 166.786 24.0439C164.459 24.0174 162.634 23.3562 161.285 22.0072C159.962 20.6582 159.354 19.0976 159.459 17.2724L158.798 16.6376L157.502 24.4406L158.084 24.5464C158.428 23.171 158.798 22.3775 159.221 22.1659C161.681 24.2026 164.141 25.2342 166.654 25.2342C168.109 25.2342 169.59 24.9168 171.045 24.2819C173.769 22.9594 175.118 20.9491 175.118 18.2247C175.118 16.5847 174.801 15.2357 174.166 14.1777C173.293 12.5906 171.521 11.2416 168.876 10.1307ZM181.043 18.6501C181.942 17.4598 183.106 16.8514 184.508 16.8514C186.042 16.8514 187.232 17.5656 188.079 19.0204C188.396 19.6552 188.555 20.2371 188.555 20.819V21.0306C188.555 22.1151 188.105 23.1467 187.153 24.0989C186.307 24.866 185.381 25.2628 184.349 25.2628H184.138C183.291 25.2628 182.524 24.9983 181.836 24.4957C180.752 23.6757 180.196 22.5119 180.196 21.0306C180.196 20.29 180.487 19.4965 181.043 18.6501ZM184.349 24.6015C185.46 24.6015 186.227 23.808 186.677 22.2738C186.783 21.8506 186.836 21.4274 186.836 20.9513C186.836 19.8668 186.518 18.941 185.883 18.1739C185.487 17.6978 184.958 17.4598 184.349 17.4598C183.371 17.4598 182.656 18.0681 182.18 19.2849C181.995 19.8668 181.889 20.3429 181.889 20.7661V20.8984C181.889 21.7184 182.048 22.5383 182.392 23.3583C182.498 23.5699 182.63 23.7551 182.789 23.9402C183.265 24.3899 183.794 24.6015 184.349 24.6015ZM195.566 16.848L195.592 16.6893L195.539 16.6628H195.513C195.381 16.8215 195.196 16.9009 195.01 16.9009H189.191C189.191 16.9009 189.138 16.9009 189.059 16.8744C189.059 16.9009 189.032 16.9273 189.006 16.9273C189.006 16.9802 189.032 17.0331 189.085 17.1389C189.588 17.1654 189.852 17.2976 189.905 17.5092V24.5452C189.905 24.7568 189.694 24.889 189.297 24.9419C189.138 24.9419 189.085 24.9948 189.085 25.1271C189.085 25.1536 189.112 25.18 189.138 25.18H192.048L192.101 25.1536C192.101 24.9948 192.048 24.9155 191.995 24.9155C191.545 24.9155 191.281 24.7832 191.228 24.5452V20.9214C191.228 20.6569 191.307 20.5246 191.466 20.5246H193.291L193.423 20.5511C193.635 20.7892 193.741 21.0537 193.741 21.3711C193.741 21.5298 193.82 21.6356 194.005 21.6885C194.005 21.662 194.032 21.6356 194.058 21.6356C193.979 20.6833 193.979 19.784 194.032 18.9376C194.02 18.9376 194.014 18.9376 194.008 18.9356C194 18.9328 193.994 18.9264 193.979 18.9111C193.82 18.9905 193.741 19.0963 193.741 19.2815C193.661 19.8105 193.503 20.1014 193.265 20.1014H191.492C191.307 20.1014 191.228 20.0221 191.228 19.8898V17.5621C191.228 17.4563 191.281 17.4034 191.413 17.4034H194.878C195.063 17.4034 195.222 17.6679 195.381 18.1705C195.381 18.4086 195.486 18.5937 195.672 18.6731L195.725 18.6466C195.619 18.2234 195.566 17.6944 195.566 17.1125V16.848ZM216.012 10.4735C216.356 10.6322 216.912 10.8702 217.679 11.1876C218.419 11.505 219.319 12.1663 220.324 13.2244C221.461 14.5469 222.043 15.9488 222.043 17.4036V17.8268C222.043 20.6571 220.721 22.826 218.102 24.3073C216.753 24.9421 215.589 25.2595 214.584 25.2595H201.544C200.777 25.2595 200.221 24.8363 199.93 24.0163C201.12 24.3602 202.284 24.0957 203.369 23.2228C202.813 23.4609 202.364 23.5402 202.02 23.4344C201.676 23.3286 201.438 23.1964 201.332 23.0641C202.311 22.9318 203.078 22.4293 203.607 21.5564C203.078 21.7945 202.575 21.7945 202.073 21.5564C202.813 21.2654 203.342 20.7629 203.633 20.0751C203.316 20.3132 202.998 20.3661 202.707 20.1545C203.157 20.0487 203.501 19.5726 203.766 18.6997C203.818 18.4616 203.845 18.25 203.845 18.0913C203.845 16.0282 203.871 14.0972 203.898 12.2721C203.792 5.47424 203.713 2.08853 203.607 2.08853C203.342 1.74466 202.813 1.55951 202.02 1.55951H201.729C201.676 1.55951 201.491 1.26855 201.173 0.660176V0.607275L201.2 0.527922C202.76 0.633726 205.749 0.686627 210.14 0.713078C214.928 0.713078 217.864 1.69176 218.948 3.64913C219.292 4.28395 219.477 5.02458 219.477 5.8181C219.477 8.09288 218.314 9.62703 216.012 10.4735ZM208.315 2.03562C207.892 2.06207 207.68 2.27368 207.68 2.67045H207.654V9.49478C207.654 9.81219 207.865 9.99735 208.262 10.0238H210.934C212.997 10.0238 214.346 9.54768 214.954 8.569C215.404 7.90773 215.616 7.00839 215.616 5.87101C215.43 3.38462 213.896 2.11498 211.039 2.03562H208.315ZM212.547 23.7254C214.478 23.7254 215.854 23.2493 216.647 22.297C217.441 21.3448 217.864 19.7842 217.917 17.5623C217.917 15.9753 217.573 14.5998 216.859 13.4624C215.854 12.1134 214.663 11.4521 213.288 11.4521H208.315C207.892 11.4521 207.68 11.6902 207.68 12.1399V22.6673C207.707 23.3815 207.945 23.7254 208.394 23.7254H212.547ZM241.138 20.5044H241.059C240.662 20.716 240.424 20.8482 240.371 20.954V21.0069C240.371 21.1921 240.318 21.5623 240.239 22.1176L240.239 22.1179C239.948 23.2024 239.631 23.7578 239.313 23.8107V23.7843L231.193 23.7578V23.7843H231.14C230.796 23.7843 230.637 23.6256 230.637 23.2817V2.57065C230.796 1.85648 231.537 1.51262 232.886 1.51262C233.044 1.51262 233.124 1.27456 233.177 0.798443L233.044 0.71909H224.474C224.368 0.71909 224.342 0.771992 224.342 0.851345C224.342 1.24811 224.554 1.43326 225.003 1.43326C226.194 1.59197 226.802 1.96228 226.802 2.57065L226.828 23.2817C226.723 23.9165 225.903 24.3133 224.421 24.4191C224.289 24.7101 224.21 24.9217 224.21 25.0539C224.315 25.0539 224.342 25.1068 224.342 25.1862C224.606 25.1333 224.739 25.1068 224.765 25.1068C224.95 25.1068 225.135 25.1068 225.347 25.0804C228.156 25.0804 230.708 25.0884 233.005 25.0956L233.006 25.0956C234.883 25.1015 236.588 25.1068 238.123 25.1068C239.948 25.1068 240.98 25.1862 241.191 25.3449L241.271 25.3184L241.218 20.9805L241.271 20.5308L241.138 20.5044ZM346.092 12.1637L347.547 11.2644L350.139 13.6185L347.547 15.8669L346.092 14.9675H346.118L346.092 14.9411H338.448L337.628 15.5759L336.517 14.4385L335.168 15.4701L334.956 15.3907C334.506 15.8669 333.845 16.1578 333.131 16.1578C332.258 16.1578 331.518 15.7346 331.041 15.0733C330.83 15.3643 330.565 15.6023 330.248 15.7875L331.306 18.3003C331.333 18.3633 331.366 18.4397 331.403 18.5263C331.616 19.0222 331.973 19.8535 332.311 20.4164C332.311 20.4164 333.66 20.4693 334.692 20.3106C334.692 20.3106 333.422 22.9557 329.19 22.9028C328.37 22.9028 327.444 22.797 326.386 22.5325C326.386 22.5325 329.005 22.0299 330.46 21.2364L330.01 20.39C330.01 20.39 328.423 20.4693 326.994 19.7816C326.016 19.3055 325.09 18.4326 324.878 16.9249C325.857 18.0887 327.312 18.8558 328.952 18.8558H329.296L328.238 16.052C327.656 15.8933 327.18 15.5494 326.836 15.0733C326.492 15.5759 325.963 15.9198 325.354 16.0785L325.513 16.1578L322.604 17.1365L319.139 16.1578H317.472C316.97 18.6971 315.938 20.7338 314.351 22.2415C312.87 23.4847 311.441 24.2782 310.066 24.5956C308.558 25.0189 306.548 25.2305 304.035 25.2305H296.497C296.444 25.2305 296.417 25.204 296.417 25.1511L295.333 23.7492C296.073 24.146 296.814 24.2253 297.475 24.0402C297.925 23.855 298.242 23.5641 298.427 23.1938C298.613 22.7441 298.692 22.0299 298.692 21.0248V16.2901C298.031 16.3165 297.422 16.3165 296.814 16.3165H294.539C293.904 18.2739 292.688 20.1519 290.915 21.9506C288.429 24.2518 285.705 25.3892 282.689 25.3892H282.054C279.621 25.3892 277.373 24.6221 275.309 23.1409C273.008 21.3686 271.527 19.0939 270.892 16.3165H266.369C265.734 18.2739 264.544 20.1519 262.772 21.9241C260.285 24.2253 257.561 25.3627 254.545 25.3627H253.911C251.477 25.3627 249.229 24.5957 247.166 23.1144C244.864 21.3422 243.383 19.0674 242.748 16.3165H239.442L234.919 13.5392L239.442 10.7618H242.616C242.96 9.20123 243.701 7.58772 244.811 5.86841C247.509 2.35044 250.922 0.60468 255.048 0.60468C259.545 0.60468 263.036 2.72075 265.523 6.9529C266.184 8.24899 266.607 9.51864 266.792 10.7618H270.733C271.104 9.22768 271.818 7.58772 272.955 5.86841C275.653 2.35044 279.065 0.60468 283.192 0.60468C287.688 0.60468 291.18 2.72075 293.666 6.9529C294.328 8.27544 294.751 9.54509 294.936 10.8147H296.761C297.369 10.8412 298.004 10.8412 298.639 10.8412V4.96908C298.639 3.35557 298.427 2.42979 297.978 2.21819C297.74 2.00658 297.211 1.79497 296.391 1.58336V0.789837C296.417 0.736935 296.444 0.710484 296.47 0.710484H305.252C311.15 0.710484 314.986 2.72075 316.758 6.68839C317.287 7.95803 317.604 9.38638 317.737 10.9734H319.112L322.577 9.99475L325.487 10.9734L325.354 11.0528C325.963 11.2115 326.492 11.5554 326.836 12.0579C327.18 11.5818 327.656 11.2379 328.238 11.0792L329.269 8.27544H328.925C327.285 8.27544 325.831 9.01607 324.852 10.2064C325.064 8.67221 325.963 7.82578 326.968 7.34966C328.396 6.66194 329.983 6.74129 329.983 6.74129L330.433 5.89486C328.978 5.10133 326.36 4.59877 326.36 4.59877C327.418 4.36071 328.343 4.22845 329.163 4.22845C333.396 4.17555 334.665 6.82064 334.665 6.82064C333.66 6.66194 332.285 6.71484 332.285 6.71484C331.888 7.37611 331.465 8.38125 331.279 8.83091L330.248 11.3437C330.565 11.5289 330.83 11.767 331.041 12.0579C331.518 11.3966 332.258 10.9734 333.131 10.9734C333.845 10.9734 334.48 11.2644 334.956 11.7405L335.168 11.6612L336.517 12.6927L337.628 11.5289L338.448 12.1637H346.092ZM314.219 12.7456H302.289V14.3327H314.113C314.166 14.0153 314.219 13.6714 314.245 13.3276L314.219 12.7456ZM319.482 12.7456H317.816C317.816 13.2747 317.79 13.8037 317.71 14.3592H319.456L322.577 15.4172L322.921 15.3114C322.471 14.8353 322.207 14.2269 322.207 13.5392C322.207 12.8779 322.498 12.2431 322.921 11.7934L322.604 11.6876L319.482 12.7456ZM304.538 2.29754C303.585 2.29754 302.845 2.32399 302.289 2.35044H302.316V10.8676C304.859 10.8857 307.587 10.9037 310.314 10.9217C311.587 10.9302 312.859 10.9386 314.113 10.947C313.663 6.87355 311.865 4.202 308.717 2.93236C307.527 2.50915 306.257 2.29754 304.934 2.29754H304.538ZM282.795 2.45624C279.938 2.45624 277.822 4.22845 276.42 7.79933C276.05 8.88381 275.812 9.88895 275.706 10.7883C278.651 10.7883 281.48 10.7961 284.064 10.8032C286.237 10.8092 288.237 10.8147 289.99 10.8147C289.699 8.43415 288.826 6.34453 287.345 4.54587C286.101 3.14397 284.594 2.45624 282.795 2.45624ZM290.048 13.8097C290.072 13.4629 290.095 13.116 290.095 12.7456H275.6C275.6 13.2747 275.627 13.8037 275.68 14.3327H290.016C290.025 14.1564 290.037 13.9831 290.048 13.8097ZM254.678 2.45624C251.821 2.45624 249.705 4.22845 248.303 7.79933C247.933 8.88381 247.695 9.8625 247.615 10.7618H261.872C261.555 8.4077 260.682 6.34453 259.227 4.54587C257.984 3.14397 256.476 2.45624 254.678 2.45624ZM261.931 13.8097C261.955 13.4629 261.978 13.116 261.978 12.7456H247.483C247.483 13.2747 247.509 13.8037 247.562 14.3327H261.899C261.908 14.1564 261.919 13.9831 261.931 13.8097ZM238.992 13.5392L240.341 14.3327H242.51C242.457 13.8566 242.431 13.3805 242.431 12.8779V12.7456H240.341L238.992 13.5392ZM254.731 23.4318C257.931 23.4318 260.179 21.1835 261.528 16.6339C261.542 16.5811 261.548 16.5216 261.555 16.4621C261.561 16.4025 261.568 16.343 261.581 16.2901H247.88C248.144 17.4539 248.515 18.6177 248.991 19.7816C249.308 20.3635 249.705 20.919 250.181 21.4744C251.53 22.7705 253.064 23.4318 254.731 23.4318ZM266.977 12.8514C266.977 13.354 266.951 13.8301 266.872 14.3327H270.628C270.575 13.8566 270.548 13.3805 270.548 12.8779V12.7456H266.977V12.8514ZM282.848 23.4318C286.048 23.4318 288.297 21.1835 289.646 16.6339C289.655 16.5898 289.66 16.5457 289.666 16.5016C289.678 16.4135 289.69 16.3253 289.725 16.2372C285.996 16.2636 281.181 16.2636 275.997 16.2636C276.262 17.4275 276.632 18.6177 277.108 19.7816C277.425 20.3635 277.822 20.919 278.298 21.4744C279.647 22.7705 281.181 23.4318 282.848 23.4318ZM295.095 12.8514C295.095 13.354 295.068 13.8301 294.989 14.3327H298.692V12.7456H295.095V12.8514ZM304.696 23.5641C308.399 23.5641 310.912 22.4002 312.235 20.0725C312.923 18.9616 313.425 17.6391 313.795 16.1049C312.691 16.1125 311.574 16.12 310.457 16.1276C307.667 16.1465 304.877 16.1654 302.289 16.1843V23.4847C302.739 23.5376 303.347 23.5641 304.061 23.5641H304.696ZM323.185 13.5127C323.185 14.4121 323.926 15.1262 324.799 15.1262C325.672 15.1262 326.413 14.4121 326.413 13.5127C326.413 12.6134 325.672 11.8992 324.799 11.8992C323.9 11.8992 323.185 12.6398 323.185 13.5127ZM327.338 13.5127C327.338 14.4121 328.079 15.1262 328.952 15.1262C329.851 15.1262 330.565 14.4121 330.565 13.5127C330.565 12.6134 329.851 11.8992 328.952 11.8992C328.052 11.8992 327.338 12.6398 327.338 13.5127ZM333.131 11.9257C332.232 11.9257 331.518 12.6663 331.518 13.5392C331.518 14.4121 332.205 15.1262 333.105 15.1262C334.004 15.1262 334.718 14.3856 334.718 13.5127C334.718 13.1689 334.639 12.8779 334.454 12.6134C334.401 12.534 334.348 12.4811 334.268 12.4018C334.268 12.3854 334.258 12.3792 334.244 12.3706C334.236 12.3652 334.226 12.359 334.216 12.3489C333.925 12.0844 333.554 11.9257 333.131 11.9257Z" fill="#C9AB84"/>
</svg>
