<svg width="22" height="22" viewBox="0 0 22 22" fill="none" xmlns="http://www.w3.org/2000/svg">
<path fill-rule="evenodd" clip-rule="evenodd" d="M11.0002 0C17.0754 0 22 4.92495 22 11.0002C22 15.5788 19.2027 19.5038 15.224 21.1591C14.4082 19.5522 12.0277 17.7758 10.3548 16.5274C9.78558 16.1027 9.2983 15.7391 8.98242 15.464C6.55185 13.348 8.28195 12.6512 8.28195 12.6512C7.42911 11.0966 8.69356 10.6087 8.69356 10.6087C8.45294 10.8716 8.58394 11.6621 8.58394 11.6621C8.78394 12.413 8.97295 12.5217 9.57265 12.7608C9.42089 12.6102 9.19005 12.2341 9.06516 11.6722C8.94089 11.1128 9.7751 10.5446 9.7751 10.5446C9.7751 10.5446 10.0319 12.3797 10.3656 12.7928C10.4224 12.8631 10.4771 12.9089 10.5235 12.9477C10.5598 12.978 10.591 13.0041 10.6142 13.0344C10.9916 13.1208 11.2279 13.1006 11.3965 13.006C11.6896 12.8411 12.0457 12.8283 12.3397 12.9916C14.2145 14.0319 15.5761 17.785 15.5761 17.785C15.7254 17.5343 15.8277 15.9782 15.8277 15.9782C16.8866 17.1477 15.5776 18.905 15.5776 18.905C18.0967 17.6973 17.8567 15.6445 17.512 14.9907C17.4399 15.5327 16.4344 16.3135 16.4344 16.3135C16.5523 15.7492 16.796 14.8939 16.796 14.8939C16.4024 15.0811 15.6695 15.323 15.6695 15.323C13.973 13.9239 11.5901 10.9699 11.773 10.5727C11.9028 10.2905 14.6497 10.3632 16.2024 10.9168C16.5504 11.0407 16.623 11.9236 16.6538 12.2979C16.6555 12.3183 16.6571 12.3372 16.6586 12.3544C16.6741 12.5353 16.7654 12.178 16.8576 11.8174C16.9423 11.4859 17.0277 11.1515 17.0558 11.2295C17.0839 11.3072 17.1153 11.3867 17.1471 11.4673C17.3122 11.885 17.4881 12.3303 17.2598 12.6994C17.0802 12.9895 18.0879 11.7562 18.0879 11.7562C18.3044 12.0072 18.1386 13.0072 17.9621 13.1187C18.3642 13.2286 19.1346 12.5965 19.1346 12.5965C19.0888 12.9993 18.7255 13.6872 18.7255 13.6872C19.189 13.2884 19.6525 13.0228 19.9352 12.8796C20.2449 12.7226 20.4965 12.4643 20.6226 12.1409C20.6341 12.1112 20.6454 12.0828 20.6564 12.0552C20.7795 11.7451 20.8585 11.5462 20.7814 10.9495C20.7596 10.9635 20.7369 10.9847 20.7103 11.0095C20.4546 11.2474 19.8373 11.8219 16.283 9.69082C15.6128 9.31893 15.7398 8.98032 15.8446 8.70093C15.9125 8.51991 15.9711 8.36375 15.7975 8.2395C15.7114 8.17779 15.693 8.03999 15.6748 7.90342C15.6552 7.75619 15.6357 7.61037 15.5318 7.56285C15.5228 7.55871 15.5123 7.55401 15.5006 7.54871C14.9729 7.31044 11.7995 5.87772 12.5522 1.3362C12.557 1.30703 12.4463 1.62099 12.2886 2.06778C11.9332 3.07528 11.3395 4.7582 11.2951 4.7051C10.4835 3.73593 9.547 2.49713 8.48806 0.916043C8.50167 1.02457 8.49754 1.13951 8.49285 1.27C8.46999 1.90652 8.43384 2.91308 10.3782 5.35C10.3782 5.35 7.2456 2.89164 5.24832 4.10326C8.38851 4.197 10.3782 6.41169 10.3782 6.69872C10.3782 6.69872 6.42024 3.957 3.13134 7.23247C3.87944 7.14972 7.87309 7.12132 9.4615 8.22027C9.4615 8.22027 7.94759 7.50758 6.16711 7.97873C3.02539 8.8102 2.42751 11.5183 2.42751 11.5183L5.25656 9.49906C5.25656 9.49906 3.0147 11.7828 2.93134 13.9303C3.5173 12.3724 4.61625 11.8649 4.61625 11.8649C4.61625 11.8649 2.92554 16.3486 5.26175 18.2311C4.52678 15.5846 5.34817 14.4973 5.34817 14.4973C5.34817 14.4973 5.3845 15.5501 5.6187 17.41C5.68649 17.9486 5.81962 18.4772 6.02451 18.9798C6.35368 19.7871 6.91857 20.7728 7.73812 20.8809C7.73812 20.8809 6.8746 19.7505 6.74513 18.9245C6.57505 17.8393 6.85658 17.3187 6.85658 17.3187C6.85658 17.3187 8.30882 19.4961 8.55035 20.3026C8.73722 20.9267 8.6563 21.3194 8.24225 21.6516C3.50173 20.4278 0 16.123 0 11.0002C0 4.92495 4.92495 0 11.0002 0ZM14.1189 9.26627C14.0462 9.2072 13.9738 9.14841 13.9056 9.11703C13.6111 8.98145 13.1979 8.48364 12.8082 8.0142C12.5502 7.70339 12.3025 7.40502 12.1064 7.23242C12.2961 7.26876 12.751 7.48036 13.4878 7.91243C13.6046 7.98097 13.8143 8.07431 14.0526 8.18036C14.6284 8.43669 15.371 8.7672 15.3703 9.00069C15.3699 9.1705 15.0015 9.25856 14.7601 9.31627C14.6542 9.34158 14.5727 9.36105 14.5575 9.37902C14.4349 9.52309 14.2761 9.39402 14.1189 9.26627Z" fill="#242424"/>
</svg>
