<svg width="19" height="19" viewBox="0 0 19 19" fill="none" xmlns="http://www.w3.org/2000/svg">
<path fill-rule="evenodd" clip-rule="evenodd" d="M9.50013 0.046875C14.7469 0.046875 19 4.30024 19 9.54701C19 13.5013 16.5842 16.8911 13.148 18.3206C12.4434 16.9329 10.3876 15.3987 8.94276 14.3206C8.45118 13.9537 8.03035 13.6397 7.75754 13.4022C5.65841 11.5747 7.15259 10.9729 7.15259 10.9729C6.41605 9.63034 7.50807 9.20893 7.50807 9.20893C7.30027 9.43599 7.4134 10.1187 7.4134 10.1187C7.58613 10.7672 7.74937 10.8611 8.26729 11.0676C8.13623 10.9375 7.93686 10.6127 7.82901 10.1274C7.72168 9.64432 8.44213 9.15355 8.44213 9.15355C8.44213 9.15355 8.66391 10.7384 8.95214 11.0952C9.00114 11.1559 9.0484 11.1954 9.0885 11.229C9.11983 11.2552 9.14679 11.2777 9.1668 11.3038C9.49275 11.3785 9.69686 11.3611 9.84243 11.2793C10.0956 11.1369 10.4031 11.1258 10.657 11.2669C12.2762 12.1654 13.4521 15.4066 13.4521 15.4066C13.581 15.1901 13.6694 13.8463 13.6694 13.8463C14.5839 14.8563 13.4534 16.3739 13.4534 16.3739C15.629 15.3309 15.4217 13.558 15.124 12.9934C15.0618 13.4615 14.1934 14.1358 14.1934 14.1358C14.2952 13.6485 14.5056 12.9098 14.5056 12.9098C14.1657 13.0715 13.5328 13.2803 13.5328 13.2803C12.0676 12.072 10.0096 9.5209 10.1676 9.17781C10.2797 8.93415 12.652 8.99691 13.9929 9.47501C14.2935 9.58204 14.3563 10.3445 14.3829 10.6678C14.3843 10.6854 14.3857 10.7017 14.3869 10.7166C14.4004 10.8728 14.4792 10.5643 14.5588 10.2528C14.632 9.9665 14.7058 9.67774 14.73 9.74505C14.7542 9.8122 14.7814 9.88088 14.8089 9.95045C14.9514 10.3112 15.1034 10.6958 14.9062 11.0146C14.7511 11.2651 15.6214 10.2 15.6214 10.2C15.8083 10.4167 15.6651 11.2804 15.5127 11.3766C15.86 11.4716 16.5254 10.9257 16.5254 10.9257C16.4858 11.2735 16.172 11.8677 16.172 11.8677C16.5723 11.5232 16.9726 11.2938 17.2168 11.1701C17.4842 11.0346 17.7015 10.8115 17.8104 10.5322C17.8204 10.5066 17.8302 10.482 17.8396 10.4582C17.946 10.1903 18.0141 10.0186 17.9475 9.50323C17.9288 9.51536 17.9092 9.53362 17.8861 9.55505C17.6654 9.76053 17.1322 10.2567 14.0626 8.41622C13.4837 8.09504 13.5934 7.80261 13.684 7.56131C13.7426 7.40498 13.7932 7.27012 13.6433 7.16281C13.5689 7.10951 13.553 6.99051 13.5373 6.87256C13.5204 6.7454 13.5036 6.61947 13.4138 6.57843C13.406 6.57486 13.397 6.57079 13.3869 6.56621C12.9311 6.36044 10.1905 5.12309 10.8406 1.20087C10.8447 1.17567 10.749 1.44681 10.6129 1.83267C10.306 2.70278 9.79324 4.15623 9.75488 4.11037C9.05394 3.27336 8.24514 2.20349 7.3306 0.838003C7.34235 0.931729 7.33878 1.031 7.33474 1.1437C7.31499 1.69341 7.28377 2.56271 8.96296 4.66733C8.96296 4.66733 6.25756 2.5442 4.53264 3.5906C7.24463 3.67156 8.96296 5.58425 8.96296 5.83213C8.96296 5.83213 5.54475 3.46429 2.70434 6.2931C3.35043 6.22163 6.79948 6.19711 8.1713 7.1462C8.1713 7.1462 6.86383 6.5307 5.32614 6.9376C2.61283 7.65568 2.09649 9.99452 2.09649 9.99452L4.53976 8.25061C4.53976 8.25061 2.6036 10.2229 2.53161 12.0776C3.03767 10.7321 3.98676 10.2938 3.98676 10.2938C3.98676 10.2938 2.5266 14.1661 4.54424 15.7919C3.90949 13.5063 4.61887 12.5673 4.61887 12.5673C4.61887 12.5673 4.65025 13.4765 4.85252 15.0828C4.91106 15.548 5.02604 16.0045 5.20299 16.4385C5.48727 17.1358 5.97513 17.987 6.68292 18.0804C6.68292 18.0804 5.93715 17.1041 5.82534 16.3908C5.67845 15.4536 5.9216 15.0039 5.9216 15.0039C5.9216 15.0039 7.1758 16.8845 7.38439 17.5809C7.54578 18.1199 7.4759 18.4591 7.11831 18.746C3.02422 17.689 0 13.9713 0 9.54701C0 4.30024 4.25337 0.046875 9.50013 0.046875ZM12.1971 8.04917C12.1343 7.99816 12.0719 7.94738 12.0129 7.92028C11.7586 7.80319 11.4017 7.37327 11.0652 6.96784C10.8424 6.69942 10.6285 6.44173 10.4591 6.29267C10.6229 6.32405 11.0158 6.5068 11.6522 6.87995C11.753 6.93914 11.9341 7.01976 12.1399 7.11134C12.6372 7.33272 13.2785 7.61816 13.2779 7.81981C13.2776 7.96646 12.9594 8.04251 12.7509 8.09235C12.6595 8.11421 12.5891 8.13103 12.5759 8.14655C12.4701 8.27097 12.3329 8.1595 12.1971 8.04917Z" fill="#C9AB84"/>
</svg>
