<svg width="25" height="43" viewBox="0 0 25 43" fill="none" xmlns="http://www.w3.org/2000/svg">
<path d="M24.3212 19.8221L5.38423 0.686946C4.94624 0.244014 4.36156 0 3.73813 0C3.11471 0 2.53003 0.244014 2.09204 0.686946L0.697462 2.0958C-0.209999 3.01382 -0.209999 4.50587 0.697462 5.4225L16.5993 21.4911L0.679818 37.5775C0.241828 38.0204 0 38.6109 0 39.2405C0 39.8708 0.241828 40.4613 0.679818 40.9046L2.0744 42.3131C2.51273 42.756 3.09706 43 3.72049 43C4.34391 43 4.92859 42.756 5.36658 42.3131L24.3212 23.1604C24.7602 22.7161 25.0014 22.1228 25 21.4921C25.0014 20.859 24.7602 20.2661 24.3212 19.8221Z" fill="#C9AB84"/>
</svg>