<svg width="77" height="54" viewBox="0 0 77 54" fill="none" xmlns="http://www.w3.org/2000/svg">
<path d="M50.9526 27.0763L30.5527 15.4773V38.4497L50.9526 27.0763Z" fill="#D9D9D9"/>
<path d="M75.3652 8.47355C74.4785 5.17694 71.8793 2.57825 68.5832 1.69057C62.5615 0.0429688 38.4745 0.0429688 38.4745 0.0429688C38.4745 0.0429688 14.3884 0.0429688 8.36671 1.62811C5.13397 2.51484 2.47141 5.17741 1.58467 8.47355C0 14.4947 0 26.9819 0 26.9819C0 26.9819 0 39.5319 1.58467 45.4902C2.47235 48.7863 5.07056 51.385 8.36718 52.2727C14.4518 53.9207 38.4754 53.9207 38.4754 53.9207C38.4754 53.9207 62.5615 53.9207 68.5832 52.3356C71.8798 51.4484 74.4785 48.8497 75.3661 45.5536C76.9503 39.5319 76.9503 27.0453 76.9503 27.0453C76.9503 27.0453 77.0137 14.4947 75.3652 8.47355ZM30.8057 38.5179V15.4458L50.8352 26.9819L30.8057 38.5179Z" fill="#FF0000"/>
</svg>